HIERARCHY
ROOT Hips
{
	OFFSET 0.000000 0.000000 0.000000 
	CHANNELS 6 Xposition Yposition Zposition Zrotation Yrotation Xrotation
	JOINT LeftUpLeg
	{
		OFFSET 1.363060 -1.794630 0.839290 
		CHANNELS 3 Zrotation Yrotation Xrotation
		JOINT LeftLeg
		{
			OFFSET 2.448110 -6.726130 0.000000 
			CHANNELS 3 Zrotation Yrotation Xrotation
			JOINT LeftFoot
			{
				OFFSET 2.562200 -7.039590 0.000000 
				CHANNELS 3 Zrotation Yrotation Xrotation
				JOINT LeftToeBase
				{
					OFFSET 0.157640 -0.433110 2.322550 
					CHANNELS 3 Zrotation Yrotation Xrotation
					End Site
					{
						OFFSET 0.000000 0.000000 0.000000 
					}
				}
			}
		}
	}
	JOINT RightUpLeg
	{
		OFFSET -1.305520 -1.794630 0.839290 
		CHANNELS 3 Zrotation Yrotation Xrotation
		JOINT RightLeg
		{
			OFFSET -2.542530 -6.985550 0.000000 
			CHANNELS 3 Zrotation Yrotation Xrotation
			JOINT RightFoot
			{
				OFFSET -2.568260 -7.056230 0.000000 
				CHANNELS 3 Zrotation Yrotation Xrotation
				JOINT RightToeBase
				{
					OFFSET -0.164730 -0.452590 2.363150 
					CHANNELS 3 Zrotation Yrotation Xrotation
					End Site
					{
						OFFSET 0.000000 0.000000 0.000000 
					}
				}
			}
		}
	}
	JOINT Spine
	{
		OFFSET 0.028270 2.035590 -0.193380 
		CHANNELS 3 Zrotation Yrotation Xrotation
		JOINT Spine1
		{
			OFFSET 0.056720 2.048850 -0.042750 
			CHANNELS 3 Zrotation Yrotation Xrotation
			JOINT Neck1
			{
				OFFSET -0.054170 1.746240 0.172020 
				CHANNELS 3 Zrotation Yrotation Xrotation
				JOINT Head
				{
					OFFSET 0.104070 1.761360 -0.123970 
					CHANNELS 3 Zrotation Yrotation Xrotation
					End Site
					{
						OFFSET 0.000000 0.000000 0.000000 
					}
				}
			}
			JOINT LeftArm
			{
				OFFSET 3.362410 1.200890 -0.311210 
				CHANNELS 3 Zrotation Yrotation Xrotation
				JOINT LeftForeArm
				{
					OFFSET 4.983000 -0.000000 -0.000000 
					CHANNELS 3 Zrotation Yrotation Xrotation
					JOINT LeftHand
					{
						OFFSET 3.483560 -0.000000 -0.000000 
						CHANNELS 3 Zrotation Yrotation Xrotation
						JOINT LeftHandIndex1
						{
							OFFSET 0.715260 -0.000000 -0.000000 
							CHANNELS 3 Zrotation Yrotation Xrotation
							End Site
							{
								OFFSET 0.000000 0.000000 0.000000 
							}
						}
					}
				}
			}
			JOINT RightArm
			{
				OFFSET -3.136600 1.374050 -0.404650 
				CHANNELS 3 Zrotation Yrotation Xrotation
				JOINT RightForeArm
				{
					OFFSET -5.241900 -0.000000 -0.000000 
					CHANNELS 3 Zrotation Yrotation Xrotation
					JOINT RightHand
					{
						OFFSET -3.444170 -0.000000 -0.000000 
						CHANNELS 3 Zrotation Yrotation Xrotation
						JOINT RightHandIndex1
						{
							OFFSET -0.622530 -0.000000 -0.000000 
							CHANNELS 3 Zrotation Yrotation Xrotation
							End Site
							{
								OFFSET 0.000000 0.000000 0.000000 
							}
						}
					}
				}
			}
		}
	}
}
MOTION
Frames: 15
Frame Time: 0.041667
-0.447471 21.030923 3.069279 -44.773651 48.196059 -28.778326 11.263443 -22.087852 -12.077453 0.080138 4.958130 6.865471 -15.476021 49.507831 20.276625 2.979100 10.661200 31.145500 -47.380141 62.766594 -15.506146 -9.210010 -13.275228 29.408188 -20.483994 39.188672 -62.369503 -10.658700 -17.764000 61.668200 3.734145 6.261026 -4.681248 1.735285 2.849212 3.055888 2.688889 7.337210 15.381414 -3.431200 4.326500 16.310600 58.300278 -30.013154 -53.963578 29.332477 -46.683357 -12.632454 2.889203 -2.628825 38.399388 -7.125000 0.000000 0.000000 -63.112802 38.482189 -79.887414 -54.148841 59.818290 -33.545085 -2.504408 4.232400 -58.805349 7.125000 0.000000 0.000000 
-0.452203 21.388384 3.277690 -50.625661 50.676283 -32.268567 12.662486 -27.655216 -11.622889 -0.962577 3.203191 6.889667 -15.535996 37.293411 -12.827996 5.496900 13.922400 42.927600 -38.698685 59.854371 -8.087495 -9.445044 -12.755458 28.930839 -21.214929 40.199241 -64.868789 -10.659600 -17.764400 61.671000 4.078075 6.430127 -4.972071 2.623355 3.045956 2.109301 1.735103 7.411648 15.367049 -4.586700 4.553200 16.252100 59.505742 -28.619253 -55.209371 29.611033 -47.261244 -13.084402 2.771782 -2.874798 38.543401 -7.125000 0.000000 0.000000 -61.714957 36.536011 -78.259834 -55.428323 59.878503 -34.513110 -2.601566 4.122428 -60.470462 7.125000 0.000000 0.000000 
-0.481991 21.744339 3.475563 -59.450565 51.792533 -38.267628 16.711783 -31.603070 -12.101545 -1.272184 2.689980 6.874195 -7.861600 21.296912 -19.652962 6.968300 15.305100 48.754400 -30.598753 57.134096 -2.926228 -9.165195 -12.676050 28.282687 -21.514553 40.657813 -65.363685 -10.660900 -17.765100 61.675300 4.454307 6.603786 -5.368009 2.892788 3.231715 1.034781 2.038212 8.541092 15.979688 -4.131000 5.040100 16.941800 60.461618 -27.151160 -55.836444 29.958363 -48.018023 -14.025538 2.169531 -3.449154 38.527829 -7.125000 0.000000 0.000000 -61.115671 34.603315 -77.809483 -55.735354 59.813990 -34.781945 -2.652103 3.977918 -62.366639 7.125000 0.000000 0.000000 
-0.472635 22.052977 3.716451 -63.233107 55.264607 -41.421286 14.890544 -29.520453 -12.825130 -1.491104 2.407586 5.989029 -8.208309 22.078966 -19.491919 6.861000 15.213800 48.346800 -27.202596 53.506215 0.902053 -8.372541 -12.516407 28.639876 -20.471575 36.308423 -62.189101 -10.619100 -17.743600 61.538100 4.377029 6.462588 -5.633914 3.646778 3.268125 0.004859 2.418630 9.585451 16.049983 -3.776700 5.526900 17.045400 60.591169 -24.598653 -55.040676 31.872045 -49.128189 -15.286102 2.285072 -3.541659 38.626549 -7.125000 0.000000 0.000000 -60.295764 32.566124 -77.694726 -55.139086 59.368333 -34.293914 -2.662672 3.805934 -64.271718 7.125000 0.000000 0.000000 
-0.473818 22.358603 3.952714 -68.202101 57.968409 -45.721537 13.695959 -27.207231 -13.652938 -1.670743 2.211786 5.404903 -10.151830 27.502867 -23.940640 6.962900 15.300600 48.734000 -23.846030 50.682474 4.170665 -7.720841 -12.516636 28.542651 -19.902459 34.719975 -59.691686 -10.667900 -17.768700 61.698300 4.365644 6.627573 -5.838691 3.945175 3.492555 -1.056451 1.606389 10.269402 15.244874 -4.621200 5.899300 16.420500 62.921700 -23.881424 -57.783011 30.895844 -48.917308 -14.660717 2.267794 -3.497422 42.210790 -7.125000 0.000000 0.000000 -59.663746 30.259875 -77.538050 -54.010525 58.774955 -33.342807 -2.651964 3.610713 -66.257980 7.125000 0.000000 0.000000 
-0.478120 22.654121 4.181343 -73.107130 60.075013 -50.021112 12.322403 -24.566032 -14.398086 -2.056786 2.190310 5.694130 -9.489486 28.960188 -31.402982 6.403100 14.808000 46.579000 -21.511279 47.232003 5.724163 -6.826833 -12.231830 28.386903 -18.790373 30.513026 -56.834584 -10.711500 -17.791000 61.841200 4.264266 6.995494 -5.889745 4.628144 3.843539 -1.594515 1.012826 11.553949 14.511572 -4.941600 6.381100 15.929000 60.948353 -20.334512 -56.546741 33.929016 -49.703364 -15.940797 3.090893 -3.244725 40.042432 -7.125000 0.000000 0.000000 -59.298466 27.609805 -77.762396 -52.773102 58.180047 -32.398045 -2.575491 3.456002 -68.163888 7.125000 0.000000 0.000000 
-0.482206 22.924367 4.402659 -77.440118 62.032217 -53.958371 10.292801 -21.670326 -15.234166 -2.409073 2.564735 6.965732 -8.250523 28.928589 -36.251357 5.801600 14.233300 44.180100 -20.268406 42.932012 5.942078 -5.729546 -11.621130 28.263554 -16.867004 24.353433 -52.094428 -10.615600 -17.741800 61.526800 4.207036 7.666521 -5.964370 5.926807 4.346798 -1.979333 1.483718 13.849022 14.807597 -3.834400 7.110300 16.327200 60.847933 -18.145236 -58.237306 34.354832 -48.924450 -14.854981 3.925304 -1.574678 40.706128 -7.125000 0.000000 0.000000 -60.998729 26.007594 -78.916529 -50.010276 57.454269 -30.143632 -2.470600 3.200194 -68.552305 7.125000 0.000000 0.000000 
-0.481669 23.168804 4.621071 -82.037210 63.730665 -58.190323 7.949753 -18.567911 -16.372831 -2.350030 3.275859 8.565446 -9.870338 32.267306 -34.950362 5.822500 14.254100 44.265100 -19.057139 38.860024 5.984752 -4.633847 -10.946549 28.068556 -14.450038 18.451211 -46.734521 -10.787500 -17.829500 62.089600 4.129753 7.957882 -6.043056 6.238567 4.598087 -2.430900 0.241083 13.512459 14.505978 -5.224600 7.135600 16.792800 60.183531 -16.762223 -60.503286 33.827323 -49.492911 -16.683812 2.429113 -4.111058 41.051885 -7.125000 0.000000 0.000000 -60.271758 23.754872 -78.693936 -50.123307 57.121885 -30.042349 -2.568527 2.887193 -70.332390 7.125000 0.000000 0.000000 
-0.462204 23.393239 4.835720 -87.328378 64.437940 -62.796967 6.058938 -14.497152 -18.085325 -1.892754 4.215423 10.435385 -13.152721 37.567846 -30.918802 5.593900 14.022900 43.329200 -17.114610 35.480929 5.774412 -3.541848 -10.310427 27.749408 -11.760574 12.406133 -42.926677 -10.678100 -17.773900 61.731600 4.067295 8.459926 -6.125050 6.383809 4.947460 -2.383067 -0.554719 13.091553 14.522726 -6.270300 7.140100 17.404500 60.081285 -15.804807 -62.644601 33.517039 -49.010485 -16.213597 2.696127 -4.009079 42.412105 -7.125000 0.000000 0.000000 -60.036044 21.831319 -79.203999 -49.131927 56.459722 -29.030280 -2.608136 2.631873 -71.809492 7.125000 0.000000 0.000000 
-0.439406 23.598531 5.034237 -93.444258 64.813470 -68.232746 4.475760 -11.220838 -19.674746 -1.326818 5.203189 12.471359 -15.905227 41.533956 -26.428387 5.866100 14.297300 44.442000 -13.995191 34.319712 7.024413 -2.840076 -10.024492 27.348939 -10.415020 9.668931 -41.392243 -10.569100 -17.717700 61.374300 4.071099 8.969832 -6.263853 6.673662 5.311283 -2.380357 -0.988229 12.862866 15.315598 -6.897200 7.237600 18.793600 59.916315 -15.534299 -65.122946 32.580343 -48.128970 -15.197889 2.989333 -3.575076 42.045112 -7.125000 0.000000 0.000000 -59.543097 19.850459 -79.356165 -48.270514 55.816506 -28.172402 -2.610232 2.475833 -74.256830 7.125000 0.000000 0.000000 
-0.407144 23.804254 5.218237 -100.085293 64.656310 -74.147319 3.436546 -8.664512 -20.995487 -0.360981 6.215996 14.083147 -20.802868 48.812191 -18.505564 4.720900 13.062500 39.602700 -11.180170 31.387321 6.911932 -1.925159 -9.516715 27.230902 -7.409921 3.486872 -38.964540 -10.541800 -17.703500 61.284300 4.053776 9.208433 -6.430284 6.747307 5.503865 -2.230534 -0.988873 12.599323 16.355066 -7.405300 7.466500 21.095300 59.068963 -15.216667 -66.940832 32.217370 -47.740828 -15.146762 2.928276 -3.894987 40.782036 -7.125000 0.000000 0.000000 -59.153821 18.254936 -80.174798 -47.186907 55.117995 -27.175245 -2.609586 2.412679 -76.393651 7.125000 0.000000 0.000000 
-0.368645 24.010514 5.419551 -106.738365 63.617275 -80.112698 3.175396 -6.249644 -22.057979 0.625607 7.158211 15.367788 -23.799220 54.451869 -8.052436 3.917800 12.050200 35.909800 -7.627736 28.650745 6.712994 -1.190287 -9.144702 27.170155 -4.534310 -2.423020 -37.288646 -10.518800 -17.691400 61.208600 4.074228 9.253012 -6.589679 6.852345 5.622134 -2.096022 -0.716081 12.319971 17.434854 -7.500500 7.675900 22.813900 59.046336 -14.713187 -68.605345 30.891343 -46.765755 -14.245489 2.899687 -4.006292 39.716310 -7.125000 0.000000 0.000000 -58.982970 17.333505 -81.581500 -45.915404 54.434438 -26.084862 -2.594228 2.381012 -76.646637 7.125000 0.000000 0.000000 
-0.347244 24.185481 5.624090 -113.073618 62.015177 -85.924512 3.065620 -5.018621 -22.661058 1.090485 7.890894 17.116196 -23.151462 54.301301 -5.004060 4.261700 12.500700 37.527200 -3.411080 26.286636 6.740133 -0.685659 -8.942764 27.275509 -2.019959 -7.807759 -36.198559 -10.413700 -17.636000 60.862400 4.113816 9.158513 -6.708212 6.973105 5.695946 -2.019768 -0.019901 12.157042 18.107714 -6.864200 7.706500 23.182900 59.028301 -14.185735 -70.012620 29.156151 -45.398664 -12.962123 2.973537 -4.084159 39.445996 -7.125000 0.000000 0.000000 -59.006359 16.826439 -83.325513 -44.914209 53.946063 -25.312246 -2.549824 2.382611 -76.319252 7.125000 0.000000 0.000000 
-0.321758 24.346790 5.831103 -119.033697 60.534113 -91.551566 2.932272 -6.193753 -22.264140 0.986131 8.376226 19.331269 -20.931683 49.710952 -10.410015 5.323600 13.739200 42.202700 0.578401 23.738602 6.664033 -0.453897 -8.916165 27.685727 0.364885 -13.083060 -35.145548 -10.180700 -17.510200 60.090600 4.075853 8.736647 -6.765196 7.251945 5.625245 -2.044668 1.155093 11.991561 18.138849 -5.245500 7.321000 20.933000 58.217527 -13.576001 -70.487750 28.053852 -44.265730 -12.108185 3.110378 -4.133069 39.520876 -7.125000 0.000000 0.000000 -58.849924 16.521517 -85.276732 -44.722445 53.769633 -25.236586 -2.513011 2.364214 -76.632297 7.125000 0.000000 0.000000 
-0.299604 24.489064 6.034138 -124.803197 59.538074 -96.924525 2.086851 -7.184374 -21.784126 0.991668 8.899852 21.272714 -19.370266 47.034528 -12.522738 5.586400 14.015200 43.298200 3.554875 21.147322 6.123565 -0.451035 -9.006524 28.193409 3.115613 -19.163238 -33.675534 -9.813000 -17.303300 58.861500 3.863024 8.165332 -6.800428 7.362436 5.442120 -2.168937 2.913233 11.531588 17.264920 -3.311300 6.782900 18.024200 57.487591 -13.015326 -70.484912 27.583773 -43.613198 -11.681701 3.213320 -4.043947 39.644295 -7.125000 0.000000 0.000000 -58.467456 16.367693 -87.499793 -44.755564 53.632134 -25.351519 -2.497825 2.331829 -77.059814 7.125000 0.000000 0.000000 
